<svg xmlns="http://www.w3.org/2000/svg" viewBox="0 0 280 56" fill="none" role="img" aria-label="DispatchFlow">
  <rect x="0" y="8" width="40" height="40" rx="10" fill="#2563EB"/>
  <path d="M12 28c6-10 14-14 22-14 2 0 4 .3 6 1-4 2-7 6-8 11-1 5 1 10 5 13-6-2-11-6-14-11-1 0-2 0-3 0z" fill="#fff" opacity=".95"/>
  <path d="M22 18c8 0 14 6 14 14s-6 14-14 14" stroke="#fff" stroke-width="2.5" stroke-linecap="round" fill="none"/>
  <circle cx="34" cy="22" r="3" fill="#60A5FA"/>
  <text x="52" y="34" font-family="Inter, system-ui, sans-serif" font-size="22" font-weight="700" fill="#0B1220">Dispatch</text>
  <text x="152" y="34" font-family="Inter, system-ui, sans-serif" font-size="22" font-weight="700" fill="#2563EB">Flow</text>
</svg>
